<svg width="100" height="100" xmlns="http://www.w3.org/2000/svg"><path style="fill:#000;stroke-width:.137854" d="M78.494 64.258c-6.633-.835-11.81-5.314-13.526-11.7l-.315-1.171-.006 6.238-.007 6.238h-4.324c-2.378 0-4.657-.063-5.066-.139-1.1-.205-2.305-.856-3.111-1.68-.393-.403-2.304-2.903-4.246-5.556-1.943-2.654-3.59-4.846-3.663-4.871-.08-.029-.13 2.289-.13 6.1v6.146h-4.596c-5.12 0-5.572-.06-6.388-.85-.87-.845-.872-.854-.872-10.548v-8.729h-7.582v20.142l-5.273-.042c-5.148-.041-5.286-.05-5.847-.35-.545-.29-.95-.735-1.23-1.346-.07-.153-.156-4.323-.194-9.306l-.07-9.029-3.515-.069c-3.351-.066-3.54-.084-4.069-.386-.742-.426-1.15-1.06-1.31-2.04-.073-.448-.133-2.783-.134-5.19v-4.377h18.935c12.218 0 19.2.05 19.679.14.972.183 2.003.694 2.784 1.382.346.305 2.324 2.858 4.395 5.674l3.765 5.12.036-6.158.036-6.158h4.65c2.934.001 4.856.057 5.203.152a2.733 2.733 0 0 1 1.774 1.487c.278.601.298.908.37 5.736.04 2.805.087 4.976.103 4.825.016-.152.268-.972.56-1.823 2.595-7.58 10.114-11.941 18.474-10.713 6.83 1.003 12.022 5.871 13.376 12.545 1.242 6.117-.528 12.089-4.752 16.033-3.622 3.382-8.67 4.933-13.914 4.273zm4.641-12.08c1.062-.523 1.791-1.27 2.302-2.36.309-.657.364-.963.364-2.018 0-1.127-.043-1.33-.454-2.164-.838-1.702-2.22-2.596-4.165-2.694-.976-.05-1.31-.008-1.998.252-1.142.43-2.384 1.67-2.821 2.817-.804 2.107-.057 4.546 1.798 5.867 1.337.951 3.4 1.076 4.974.3z"/></svg>